<?xml version="1.0" standalone="no"?>
<!DOCTYPE svg PUBLIC "-//W3C//DTD SVG 20010904//EN"
 "http://www.w3.org/TR/2001/REC-SVG-20010904/DTD/svg10.dtd">
<svg version="1.0" xmlns="http://www.w3.org/2000/svg"
 width="512.000000pt" height="512.000000pt" viewBox="0 0 512.000000 512.000000"
 preserveAspectRatio="xMidYMid meet">
<metadata>
Created by potrace 1.11, written by Peter Selinger 2001-2013
</metadata>
<g transform="translate(0.000000,512.000000) scale(0.100000,-0.100000)"
fill="#000000" stroke="none">
<path d="M60 3589 c-64 -51 -62 -49 -48 -63 7 -7 24 -27 38 -45 14 -18 44 -54
68 -81 23 -26 51 -59 62 -73 l21 -26 -42 -178 c-22 -98 -42 -185 -44 -193 -2
-8 -13 -55 -24 -105 -55 -238 -87 -385 -85 -385 1 0 65 26 141 59 461 196 663
281 670 281 4 0 35 -16 68 -36 33 -20 89 -52 125 -72 82 -44 77 -39 84 -87 7
-47 33 -252 40 -310 22 -183 27 -223 31 -245 2 -14 8 -68 15 -120 6 -52 13
-110 16 -128 l5 -33 111 103 c62 57 121 112 133 123 11 11 79 74 150 140 71
66 156 146 189 177 65 61 72 64 125 48 19 -5 50 -12 70 -15 20 -3 46 -7 56 -9
11 -2 43 -7 71 -11 l51 -7 136 -266 c228 -448 262 -512 269 -512 3 0 51 89
107 198 55 108 144 283 198 388 l98 192 60 7 c33 3 102 15 154 26 l95 19 25
-23 c45 -41 152 -141 180 -167 14 -14 84 -79 156 -145 71 -66 163 -152 205
-192 61 -59 76 -69 82 -55 4 9 30 206 58 437 32 261 56 423 63 428 7 4 30 17
52 29 22 11 77 42 121 69 45 27 86 49 92 49 5 0 34 -11 63 -24 30 -13 173 -74
319 -136 146 -61 274 -115 285 -120 82 -38 135 -58 138 -52 2 4 -6 50 -19 102
-13 52 -57 243 -98 424 l-75 329 58 66 c31 36 77 90 100 120 l42 54 -28 24
c-59 49 -56 50 -134 -44 -100 -122 -334 -353 -455 -450 -428 -345 -947 -573
-1484 -652 -69 -10 -121 -16 -237 -27 -89 -7 -399 -8 -473 0 -123 13 -156 17
-180 21 -14 2 -45 7 -70 10 -59 8 -214 41 -309 66 -89 24 -312 98 -326 109 -5
4 -28 13 -50 20 -93 29 -491 244 -558 301 -7 5 -50 37 -97 71 -76 55 -135 102
-239 193 -73 63 -217 214 -303 318 -50 59 -91 107 -92 107 0 -1 -12 -10 -26
-21z"/>
</g>
</svg>
